<svg width="56" height="56" viewBox="0 0 56 56" fill="none" xmlns="http://www.w3.org/2000/svg">
<circle cx="28" cy="28" r="28" fill="white"/>
<rect width="40" height="40" transform="translate(8 8)" fill="white"/>
<path d="M14.6666 19.6667V36.3333C14.6666 40.0152 20.6362 43 28 43C35.3638 43 41.3333 40.0152 41.3333 36.3333V19.6667M14.6666 19.6667C14.6666 23.3486 20.6362 26.3333 28 26.3333C35.3638 26.3333 41.3333 23.3486 41.3333 19.6667M14.6666 19.6667C14.6666 15.9848 20.6362 13 28 13C35.3638 13 41.3333 15.9848 41.3333 19.6667M41.3333 28C41.3333 31.6819 35.3638 34.6667 28 34.6667C20.6362 34.6667 14.6666 31.6819 14.6666 28" stroke="#E29F6F" stroke-width="3"/>
</svg>
