<svg width="56" height="56" viewBox="0 0 56 56" fill="none" xmlns="http://www.w3.org/2000/svg">
<circle cx="28" cy="28" r="28" fill="white"/>
<path d="M24.106 36.3333H31.8943M28.0002 13V14.6667M38.6068 17.3934L37.4282 18.5719M43.0002 27.9999H41.3336M14.6669 27.9999H13.0002M18.5721 18.5719L17.3936 17.3934M22.1076 33.8926C18.8532 30.6382 18.8532 25.3618 22.1076 22.1075C25.362 18.8531 30.6383 18.8531 33.8927 22.1075C37.1471 25.3618 37.1471 30.6382 33.8927 33.8926L32.9809 34.8044C31.9261 35.8592 31.3335 37.2899 31.3335 38.7816V39.6667C31.3335 41.5076 29.8411 43 28.0002 43C26.1592 43 24.6668 41.5076 24.6668 39.6667V38.7816C24.6668 37.2899 24.0742 35.8592 23.0194 34.8044L22.1076 33.8926Z" stroke="#5828E3" stroke-width="3" stroke-linecap="round" stroke-linejoin="round"/>
</svg>
