<svg width="871" height="36" viewBox="0 0 871 36" fill="none" xmlns="http://www.w3.org/2000/svg">
<g clip-path="url(#clip0_1_2302)">
<path d="M587.031 21.4916C587.031 22.0131 586.917 22.4976 586.691 22.9456C586.465 23.3873 586.145 23.7676 585.742 24.0745C585.334 24.3873 584.85 24.6265 584.291 24.7982C583.731 24.97 583.116 25.0558 582.449 25.0558C581.651 25.0558 580.935 24.9515 580.307 24.7369C579.678 24.5283 579.044 24.1725 578.409 23.6815L579.459 22.0188C579.961 22.4298 580.414 22.7302 580.822 22.9207C581.224 23.1109 581.639 23.2029 582.067 23.2029C582.588 23.2029 583.003 23.074 583.324 22.8103C583.644 22.5465 583.795 22.1968 583.795 21.7491C583.795 21.5589 583.764 21.381 583.707 21.2154C583.65 21.0497 583.544 20.878 583.393 20.7001C583.242 20.5283 583.028 20.332 582.758 20.1296C582.494 19.9271 582.149 19.6695 581.721 19.3688C581.401 19.148 581.08 18.9148 580.772 18.6815C580.464 18.4422 580.188 18.1907 579.93 17.9207C579.679 17.6507 579.478 17.3502 579.321 17.0129C579.17 16.6817 579.088 16.295 579.088 15.8717C579.088 15.3809 579.195 14.9269 579.402 14.5218C579.61 14.1166 579.899 13.7733 580.263 13.4852C580.628 13.1969 581.061 12.9761 581.576 12.8168C582.085 12.6573 582.638 12.5775 583.241 12.5775C583.876 12.5775 584.486 12.6573 585.076 12.8229C585.666 12.9886 586.213 13.2278 586.722 13.5467L585.773 15.0436C585.126 14.6019 584.441 14.3751 583.725 14.3751C583.291 14.3751 582.927 14.4855 582.644 14.7064C582.361 14.9272 582.217 15.2033 582.217 15.5406C582.217 15.8597 582.342 16.148 582.594 16.3996C582.845 16.6573 583.278 17.007 583.895 17.4732C584.517 17.9149 585.032 18.3075 585.434 18.6385C585.843 18.9697 586.163 19.2887 586.402 19.5833C586.641 19.8778 586.798 20.1723 586.892 20.4787C586.986 20.7916 587.03 21.1228 587.03 21.4912L587.031 21.4916ZM597.807 18.6884C597.807 19.1484 597.757 19.6455 597.656 20.1788C597.562 20.7125 597.392 21.2036 597.153 21.6575C596.915 22.1114 596.607 22.4859 596.223 22.774C595.84 23.0684 595.35 23.2156 594.765 23.2156C593.785 23.2156 593.012 22.8353 592.447 22.0686C591.881 21.3077 591.599 20.2589 591.599 18.9278C591.599 17.5596 591.881 16.4802 592.459 15.6765C593.031 14.8728 593.81 14.4742 594.791 14.4742C595.721 14.4742 596.456 14.8545 596.996 15.603C597.536 16.3573 597.807 17.388 597.807 18.6885L597.807 18.6884ZM601.212 18.5718C601.212 17.6822 601.08 16.8726 600.823 16.1489C600.559 15.4187 600.194 14.7931 599.711 14.2657C599.227 13.7382 598.661 13.3333 598.001 13.0387C597.342 12.7441 596.613 12.597 595.815 12.597C594.935 12.597 594.162 12.7627 593.496 13.0817C592.83 13.4068 592.208 13.916 591.642 14.615L591.624 12.8788H588.488V30.722H591.618V23.1854C591.925 23.5351 592.221 23.8295 592.51 24.0685C592.793 24.3077 593.082 24.504 593.377 24.6513C593.672 24.7985 593.98 24.9089 594.306 24.9703C594.633 25.0316 594.985 25.0623 595.356 25.0623C596.185 25.0623 596.964 24.8966 597.681 24.5776C598.397 24.2525 599.019 23.7986 599.54 23.2095C600.062 22.6204 600.471 21.9337 600.766 21.1547C601.068 20.3692 601.212 19.5043 601.212 18.5718L601.212 18.5718ZM602.607 24.774H605.824V7.31445H602.607V24.774ZM619.545 24.7801V12.8673H616.329V19.2776C616.329 19.8481 616.303 20.29 616.253 20.6028C616.203 20.9156 616.121 21.1917 616.008 21.4494C615.556 22.4307 614.72 22.9281 613.507 22.9281C612.558 22.9281 611.899 22.5969 611.522 21.928C611.371 21.6765 611.27 21.3882 611.214 21.069C611.157 20.7501 611.126 20.29 611.126 19.6827V12.8679H607.909V19.6372C607.909 20.0972 607.915 20.4897 607.921 20.8024C607.928 21.1153 607.953 21.4036 607.984 21.6491C608.016 21.8945 608.053 22.1153 608.097 22.3058C608.135 22.496 608.198 22.68 608.28 22.8518C608.575 23.582 609.046 24.1341 609.706 24.508C610.366 24.8822 611.176 25.0663 612.131 25.0663C612.992 25.0663 613.752 24.919 614.406 24.6245C615.059 24.3301 615.694 23.8514 616.31 23.1829L616.316 24.778L619.546 24.7841L619.545 24.7801ZM633.409 24.774V18.0177C633.409 17.5576 633.403 17.1653 633.397 16.8401C633.39 16.515 633.372 16.2328 633.334 15.9935C633.302 15.7542 633.258 15.5457 633.214 15.3677C633.164 15.1837 633.108 15.0058 633.045 14.834C632.749 14.1226 632.278 13.5705 631.618 13.1836C630.959 12.7967 630.148 12.6009 629.186 12.6009C628.326 12.6009 627.565 12.7481 626.912 13.0425C626.258 13.337 625.623 13.8215 625.008 14.4842L625.002 12.8891H621.765V24.7758H625.008V18.3591C625.008 17.8069 625.027 17.3713 625.07 17.0644C625.108 16.7577 625.19 16.4693 625.303 16.1931C625.51 15.7145 625.837 15.3588 626.271 15.1136C626.704 14.8685 627.22 14.7456 627.822 14.7456C628.771 14.7456 629.431 15.0768 629.808 15.7457C629.953 15.9972 630.053 16.2855 630.11 16.5982C630.166 16.9111 630.198 17.3772 630.198 17.9787V24.7609L633.409 24.7671L633.409 24.774ZM646.72 23.9884L641.819 18.0438L645.959 13.713L643.521 12.6889L639.211 17.5658H638.872V7.3177H635.629V24.7772H638.872V18.4528L643.722 25.0139L646.719 23.9891L646.72 23.9884ZM659.25 19.7188V17.7739L649.5 13.001V15.1416L657.056 18.7304L649.5 22.368V24.4599L659.25 19.7182V19.7188ZM650.447 9.9129C649.85 9.9129 649.366 10.3914 649.366 10.9806C649.366 11.5818 649.85 12.0542 650.447 12.0542C651.051 12.0542 651.528 11.5819 651.528 10.9806C651.528 10.3856 651.051 9.9129 650.447 9.9129V9.9129ZM650.454 10.0785C650.937 10.0785 651.327 10.4834 651.327 10.9863C651.327 11.4893 650.937 11.894 650.454 11.8882C649.964 11.8882 649.574 11.4895 649.574 10.9804C649.574 10.4835 649.964 10.0785 650.454 10.0785ZM650.247 11.091H650.378C650.535 11.091 650.611 11.1462 650.642 11.2996C650.667 11.4591 650.699 11.5634 650.724 11.6002H650.931C650.912 11.5634 650.881 11.4898 650.856 11.3058C650.831 11.1278 650.761 11.0358 650.649 11.0174V11.0052C650.781 10.9683 650.887 10.8702 650.887 10.7168C650.887 10.6064 650.849 10.5205 650.774 10.4714C650.699 10.4162 650.579 10.3794 650.397 10.3794C650.253 10.3794 650.152 10.3917 650.052 10.4101V11.6001H650.247V11.0909V11.091ZM650.247 10.5388C650.278 10.5327 650.322 10.5266 650.385 10.5266C650.605 10.5266 650.68 10.6309 650.68 10.7352C650.68 10.8824 650.541 10.9376 650.385 10.9376H650.247V10.5389V10.5388Z" fill="white"/>
</g>
<g clip-path="url(#clip1_1_2302)">
<path fill-rule="evenodd" clip-rule="evenodd" d="M59.4956 18.8874C59.4956 14.7619 57.4463 11.5066 53.5295 11.5066C49.5962 11.5066 47.2164 14.7619 47.2164 18.8552C47.2164 23.706 50.0259 26.1555 54.0584 26.1555C56.0251 26.1555 57.5124 25.7204 58.6362 25.108V21.8849C57.5124 22.4328 56.2234 22.7713 54.5872 22.7713C52.9842 22.7713 51.5629 22.2233 51.3811 20.3217H59.4626C59.4626 20.1122 59.4956 19.2742 59.4956 18.8874ZM51.3315 17.3565C51.3315 15.5354 52.4718 14.778 53.513 14.778C54.5211 14.778 55.5954 15.5354 55.5954 17.3565H51.3315Z" fill="white"/>
<path fill-rule="evenodd" clip-rule="evenodd" d="M40.837 11.5066C39.2174 11.5066 38.1763 12.2479 37.5978 12.7636L37.383 11.7644H33.7472V30.555L37.8788 29.7009L37.8953 25.1402C38.4903 25.5592 39.3662 26.1555 40.8205 26.1555C43.7788 26.1555 46.4726 23.8349 46.4726 18.7263C46.4561 14.0528 43.7292 11.5066 40.837 11.5066ZM39.8455 22.6101C38.8704 22.6101 38.292 22.2717 37.8953 21.8527L37.8788 15.8739C38.3085 15.4065 38.9034 15.0842 39.8455 15.0842C41.3494 15.0842 42.3905 16.728 42.3905 18.8391C42.3905 20.9986 41.3659 22.6101 39.8455 22.6101Z" fill="white"/>
<path fill-rule="evenodd" clip-rule="evenodd" d="M28.062 10.5557L32.2101 9.68549V6.41406L28.062 7.26818V10.5557Z" fill="white"/>
<path d="M32.2101 11.7805H28.062V25.8815H32.2101V11.7805Z" fill="white"/>
<path fill-rule="evenodd" clip-rule="evenodd" d="M23.6161 12.973L23.3517 11.7805H19.782V25.8815H23.9136V16.3251C24.8887 15.0842 26.5413 15.3098 27.0537 15.4871V11.7805C26.5248 11.5871 24.5912 11.2326 23.6161 12.973Z" fill="white"/>
<path fill-rule="evenodd" clip-rule="evenodd" d="M15.353 8.28344L11.3205 9.12144L11.304 22.0299C11.304 24.415 13.1385 26.1716 15.5844 26.1716C16.9396 26.1716 17.9312 25.9298 18.4765 25.6397V22.3683C17.9477 22.5778 15.3365 23.3191 15.3365 20.934V15.2131H18.4765V11.7805H15.3365L15.353 8.28344Z" fill="white"/>
<path fill-rule="evenodd" clip-rule="evenodd" d="M4.18124 15.8739C4.18124 15.2454 4.71009 15.0036 5.586 15.0036C6.84201 15.0036 8.42856 15.3743 9.68458 16.035V12.2479C8.31287 11.7161 6.9577 11.5066 5.586 11.5066C2.23111 11.5066 3.05176e-05 13.2148 3.05176e-05 16.0672C3.05176e-05 20.5151 6.28011 19.806 6.28011 21.7238C6.28011 22.4651 5.61905 22.7068 4.69357 22.7068C3.32186 22.7068 1.57005 22.1589 0.181822 21.4176V25.253C1.71879 25.8977 3.27228 26.1716 4.69357 26.1716C8.13108 26.1716 10.4944 24.5117 10.4944 21.6271C10.4778 16.8247 4.18124 17.6788 4.18124 15.8739Z" fill="white"/>
</g>
<g clip-path="url(#clip2_1_2302)">
<path d="M174.633 19.161C174.633 17.2542 173.162 15.9141 171.356 15.9141C169.549 15.9141 168.079 17.2768 168.079 19.161C168.079 21.0225 169.549 22.4079 171.356 22.4079C173.164 22.4061 174.633 21.0677 174.633 19.161ZM174.659 24.8361V23.3603C173.768 24.3824 172.441 25.0168 170.852 25.0168C167.551 25.0168 165.045 22.5191 165.045 19.161C165.045 15.8237 167.647 13.2826 170.926 13.2826C172.469 13.2826 173.77 13.9187 174.661 14.9164V13.4859H177.624V24.8361H174.659Z" fill="white"/>
<path d="M192.019 22.3157C190.982 22.3157 190.694 21.9524 190.694 20.9999V15.961H192.599V13.4859H190.694V10.7171H187.657V13.4859H183.745V12.7959C183.745 11.8416 184.131 11.4784 185.192 11.4784H185.858V9.27614H184.396C181.891 9.27614 180.71 10.0479 180.71 12.4083V13.4842H179.023V15.9593H180.71V24.8343H183.747V15.9593H187.659V21.5213C187.659 23.8366 188.598 24.836 191.056 24.836H192.623V22.3157H192.019Z" fill="white"/>
<path d="M202.912 18.1389C202.696 16.6632 201.418 15.7785 199.925 15.7785C198.43 15.7785 197.201 16.6406 196.889 18.1389H202.912ZM196.863 19.9101C197.081 21.5891 198.358 22.5434 199.973 22.5434C201.25 22.5434 202.239 21.975 202.816 21.0677H205.926C205.202 23.4733 202.912 25.0167 199.901 25.0167C196.262 25.0167 193.708 22.6111 193.708 19.1835C193.708 15.7559 196.408 13.2808 199.975 13.2808C203.566 13.2808 206.168 15.7785 206.168 19.1835C206.168 19.4338 206.144 19.6824 206.096 19.9101H196.863Z" fill="white"/>
<path d="M225.479 19.161C225.479 17.322 224.008 15.9141 222.201 15.9141C220.395 15.9141 218.924 17.2768 218.924 19.161C218.924 21.0225 220.395 22.4079 222.201 22.4079C224.008 22.4061 225.479 20.9999 225.479 19.161ZM215.935 13.4859H218.898V14.9616C219.789 13.917 221.114 13.2826 222.705 13.2826C225.958 13.2826 228.512 15.8029 228.512 19.1384C228.512 22.4756 225.91 25.0185 222.633 25.0185C221.114 25.0185 219.862 24.4501 218.994 23.4977V29.5064H215.935V13.4859Z" fill="white"/>
<path d="M239.195 19.161C239.195 17.2542 237.726 15.9141 235.917 15.9141C234.111 15.9141 232.64 17.2768 232.64 19.161C232.64 21.0225 234.111 22.4079 235.917 22.4079C237.726 22.4061 239.195 21.0677 239.195 19.161ZM239.221 24.8361V23.3603C238.329 24.3824 237.002 25.0168 235.413 25.0168C232.112 25.0168 229.607 22.5191 229.607 19.161C229.607 15.8237 232.208 13.2826 235.486 13.2826C237.028 13.2826 238.329 13.9187 239.221 14.9164V13.4859H242.184V24.8361H239.221Z" fill="white"/>
<path d="M210.592 14.5983C210.592 14.5983 211.347 13.2826 213.194 13.2826C213.984 13.2826 214.495 13.5381 214.495 13.5381V16.4338C214.495 16.4338 213.381 15.7855 212.357 15.9159C211.332 16.0462 210.685 16.9327 210.688 18.1181V24.8378H207.629V13.4877H210.592V14.5983Z" fill="white"/>
<path d="M256.025 13.4859L248.543 29.4699H245.387L248.325 23.2908L243.358 13.4859H246.934L249.84 20.037L252.822 13.4859H256.025Z" fill="white"/>
<path d="M279.912 13.2287L272.493 9.19618C270.316 8.0125 267.594 9.49166 267.594 11.8608V12.2744C267.594 12.6481 267.806 12.994 268.149 13.18L269.55 13.9413C269.961 14.1655 270.474 13.8857 270.474 13.439V12.41C270.474 11.8955 271.065 11.574 271.538 11.8312L277.963 15.3249C278.436 15.5821 278.436 16.2252 277.963 16.4808L271.538 19.9744C271.065 20.2317 270.474 19.9101 270.474 19.3956V18.8481C270.474 16.479 267.753 14.9981 265.574 16.1835L258.156 20.216C255.978 21.3997 255.978 24.3615 258.156 25.5452L265.574 29.5777C267.751 30.7613 270.474 29.2822 270.474 26.9131V26.4994C270.474 26.1257 270.262 25.7815 269.919 25.5938L268.518 24.8308C268.107 24.6066 267.594 24.8864 267.594 25.3332V26.3621C267.594 26.8766 267.004 27.1981 266.531 26.9409L260.106 23.4472C259.634 23.19 259.634 22.5469 260.106 22.2897L266.531 18.7959C267.004 18.5387 267.594 18.8602 267.594 19.3747V19.9223C267.594 22.2914 270.316 23.7723 272.493 22.5869L279.912 18.5543C282.089 17.3741 282.089 14.4123 279.912 13.2287Z" fill="white"/>
</g>
<g clip-path="url(#clip3_1_2302)">
<path d="M456.95 10.6508C458.069 10.6508 458.937 9.78672 458.937 8.70107C458.937 7.63757 458.069 6.77348 456.95 6.77348C455.854 6.77348 454.941 7.63757 454.941 8.70107C454.918 9.78672 455.854 10.6508 456.95 10.6508Z" fill="white"/>
<path d="M439.823 12.0023H442.815V13.7748C443.569 12.7113 445.236 11.7364 447.199 11.7364C450.922 11.7364 453.753 14.8161 453.753 18.6048C453.753 22.3714 450.922 25.4732 447.199 25.4732C445.236 25.4732 443.591 24.4984 442.815 23.4349V30.7243H439.823V12.0023ZM446.651 14.373C444.231 14.373 442.564 16.2119 442.564 18.6048C442.564 20.9756 444.231 22.8367 446.651 22.8367C449.049 22.8367 450.716 20.9977 450.716 18.6048C450.716 16.2341 449.049 14.373 446.651 14.373Z" fill="white"/>
<path d="M460.65 12.0023H463.641V13.7969C464.463 12.4676 466.016 11.7364 467.775 11.7364C470.926 11.7364 472.981 13.9077 472.981 17.2533V25.2074H469.989V17.7407C469.989 15.6581 468.893 14.3952 467.158 14.3952C465.171 14.3952 463.641 15.9018 463.641 18.7156V25.2074H460.65V12.0023Z" fill="white"/>
<path d="M417.033 11.7364C415.275 11.7364 413.722 12.4676 412.9 13.797V6.77344H409.908V25.2074H412.9V18.7156C412.9 15.9018 414.43 14.3951 416.417 14.3951C418.152 14.3951 419.248 15.6581 419.248 17.7408V25.2074H422.24V17.2534C422.217 13.9077 420.184 11.7364 417.033 11.7364Z" fill="white"/>
<path d="M458.412 12.0024H455.42V25.2075H458.412V12.0024Z" fill="white"/>
<path d="M431.032 25.4733C427.013 25.4733 423.907 22.4379 423.907 18.6049C423.907 14.7718 427.013 11.7365 431.032 11.7365C435.051 11.7365 438.156 14.7718 438.156 18.6049C438.156 22.4379 435.051 25.4733 431.032 25.4733ZM431.032 22.7702C433.429 22.7702 435.119 20.9534 435.119 18.6049C435.119 16.2563 433.429 14.4395 431.032 14.4395C428.611 14.4395 426.921 16.2563 426.921 18.6049C426.921 20.9534 428.611 22.7702 431.032 22.7702Z" fill="white"/>
<path d="M399.013 10.3054C398.99 11.1882 398.352 12.4463 397.281 12.4463C396.62 12.4463 396.073 11.9166 396.073 11.2765V11.2544C396.051 10.2171 395.572 9.31219 394.82 8.67213C394.25 8.20864 393.544 7.89965 392.769 7.81136C393.43 7.14923 394.364 6.75195 395.39 6.75195C396.689 6.75195 397.874 7.4803 398.557 8.53971C398.876 9.06941 399.036 9.70947 399.013 10.3054Z" fill="white"/>
<path d="M394.775 10.3936C395.344 11.0999 395.686 12.4462 394.866 13.1084C394.342 13.5277 393.589 13.4615 393.157 12.976C392.45 12.2035 391.47 11.8062 390.49 11.7841C389.738 11.762 388.986 11.9828 388.348 12.4021C388.416 11.4972 388.849 10.5923 389.647 9.95222C390.673 9.13559 392.108 8.89281 393.339 9.37837C393.909 9.57701 394.41 9.93015 394.775 10.3936Z" fill="white"/>
<path d="M391.584 13.0864C392.473 13.263 393.658 14.1017 393.475 15.117C393.362 15.757 392.723 16.1764 392.063 16.066H392.04C390.992 15.9115 389.966 16.2205 389.214 16.8164C388.644 17.2578 388.189 17.8979 387.983 18.6262C387.436 17.8758 387.186 16.9268 387.345 15.9336C387.596 14.6755 388.53 13.6161 389.807 13.1968C390.376 13.0202 391.014 12.9761 391.584 13.0864Z" fill="white"/>
<path d="M390.923 17.1474C391.721 16.7281 393.179 16.6397 393.703 17.5226C394.045 18.0744 393.84 18.8027 393.27 19.1338C392.359 19.6635 391.789 20.5242 391.584 21.4733C391.447 22.1796 391.516 22.93 391.857 23.6142C390.946 23.3935 390.103 22.8197 389.601 21.9589C388.941 20.8332 388.963 19.4428 389.647 18.3393C389.966 17.8316 390.399 17.4122 390.923 17.1474Z" fill="white"/>
<path d="M393.111 20.6567C393.453 19.8401 394.501 18.8689 395.481 19.2221C396.119 19.4428 396.438 20.127 396.21 20.723C395.868 21.694 396.005 22.7093 396.483 23.5481C396.848 24.1881 397.395 24.6957 398.101 25.0268C397.235 25.424 396.233 25.5124 395.276 25.1592C394.022 24.7178 393.111 23.6363 392.906 22.3562C392.837 21.7824 392.906 21.1864 393.111 20.6567Z" fill="white"/>
<path d="M397.122 21.9808C396.825 21.1422 396.985 19.7517 397.988 19.3985C398.626 19.1779 399.309 19.4869 399.537 20.1048C399.925 21.0539 400.699 21.7602 401.634 22.1133C402.317 22.3781 403.115 22.4222 403.867 22.2457C403.48 23.0844 402.75 23.7686 401.793 24.1218C400.54 24.5632 399.104 24.2983 398.124 23.4375C397.669 23.0182 397.304 22.5326 397.122 21.9808Z" fill="white"/>
<path d="M401.087 20.5023C400.312 20.0388 399.492 18.869 400.039 17.9862C400.38 17.4344 401.11 17.2358 401.702 17.5448C402.636 18.0303 403.685 18.0965 404.642 17.7875C405.348 17.5448 405.986 17.1033 406.442 16.4854C406.693 17.3682 406.602 18.3393 406.078 19.2001C405.417 20.3257 404.141 21.0099 402.819 20.9658C402.181 20.9658 401.565 20.8113 401.087 20.5023Z" fill="white"/>
<path d="M403.138 16.9045C402.226 17.037 400.836 16.6397 400.654 15.6245C400.517 15.0064 400.973 14.3884 401.634 14.2781H401.657C402.705 14.0795 403.548 13.4615 404.049 12.6448C404.437 12.0269 404.619 11.2985 404.551 10.5481C405.326 11.0557 405.918 11.8724 406.078 12.8435C406.305 14.1015 405.781 15.4258 404.756 16.2204C404.277 16.5735 403.708 16.8384 403.138 16.9045Z" fill="white"/>
<path d="M402.317 12.8877C401.702 13.5499 400.38 14.1237 399.56 13.4616C399.036 13.0422 398.968 12.3139 399.401 11.8063C400.061 11.0117 400.312 9.99645 400.153 9.0474C400.039 8.34112 399.697 7.65692 399.15 7.10515C400.084 7.01686 401.064 7.28171 401.862 7.92177C402.887 8.7384 403.366 10.0847 403.092 11.3428C402.978 11.9166 402.705 12.4684 402.317 12.8877Z" fill="white"/>
</g>
<g clip-path="url(#clip4_1_2302)">
<path d="M869.149 13.303C869.149 12.9076 868.864 12.6439 868.395 12.6439L867.474 12.6604L867.491 14.6706H867.993V13.9785H868.295L868.73 14.6706H869.316L868.797 13.8962C868.905 13.8375 868.994 13.7515 869.056 13.6471C869.118 13.5427 869.15 13.4238 869.149 13.303ZM868.295 13.5666H867.976V13.0558H868.345C868.411 13.0487 868.478 13.067 868.531 13.1068C868.584 13.1467 868.619 13.2052 868.63 13.27V13.2865C868.628 13.3273 868.618 13.3673 868.6 13.404C868.582 13.4407 868.557 13.4733 868.525 13.4997C868.494 13.5261 868.457 13.5457 868.417 13.5572C868.377 13.5687 868.336 13.5719 868.295 13.5666V13.5666ZM793.99 22.596C793.136 22.596 792.549 21.9369 792.549 20.9647V16.5325H796.067V13.4019H792.558L792.524 9.8099H788.638L788.672 21.7721C788.672 24.1942 790.313 25.8419 792.725 25.8419C793.998 25.8419 795.204 25.6607 796.159 25.2323V22.184C795.481 22.4935 794.736 22.635 793.99 22.596V22.596ZM803.27 13.2041C799.652 13.2041 796.871 15.9723 796.871 19.6466C796.871 23.288 799.652 25.8254 803.487 25.8254C805.648 25.8254 807.675 25.0675 808.915 23.5022L805.933 22.1676C805.33 22.7113 804.409 22.9255 803.588 22.9255C802.248 22.9255 800.908 22.2499 800.724 20.8659H809.618C809.752 20.3713 809.819 19.8617 809.819 19.35C809.819 15.5768 807.022 13.2041 803.278 13.2041H803.27ZM800.724 18.4438C800.841 16.7961 802.047 16.0382 803.37 16.0382C804.861 16.0382 805.983 16.862 805.983 18.279V18.4438H800.724ZM784.945 22.596C784.09 22.596 783.504 21.9369 783.504 20.9647V16.5325H787.022V13.4019H783.513L783.479 9.8099H779.593L779.626 21.7721C779.626 24.1942 781.268 25.8419 783.68 25.8419C784.953 25.8419 786.159 25.6607 787.114 25.2323V22.184C786.436 22.495 785.691 22.6365 784.945 22.596V22.596ZM771.293 13.2041C767.96 13.2041 764.459 15.3626 764.459 19.7125C764.459 23.3374 766.938 25.8749 770.07 25.8749C771.863 25.8749 773.219 25.1663 774.107 23.9141L774.224 25.6607H777.985V19.8608C777.985 15.445 774.677 13.2041 771.293 13.2041V13.2041ZM771.293 22.53C769.601 22.53 768.379 21.2943 768.379 19.5477C768.379 17.8012 769.585 16.5654 771.293 16.5654C772.868 16.5654 774.174 17.9165 774.174 19.5477C774.174 21.1789 772.868 22.53 771.293 22.53V22.53ZM868.211 11.7377C866.988 11.7542 866.201 12.5286 866.218 13.682C866.234 14.8353 867.038 15.5933 868.261 15.5768C869.45 15.5603 870.254 14.7859 870.238 13.6161C870.221 12.4462 869.417 11.7212 868.211 11.7377V11.7377ZM868.261 15.2473C867.306 15.2637 866.653 14.6376 866.653 13.682C866.653 12.7263 867.273 12.0837 868.228 12.0672C869.182 12.0508 869.819 12.6769 869.836 13.649C869.836 14.5882 869.199 15.2308 868.269 15.2473H868.261ZM849.216 13.4183L846.502 21.1625L843.755 13.4183H839.534L844.593 25.6442H848.378L853.437 13.4183H849.216ZM859.283 13.2041C855.665 13.2041 852.884 15.9723 852.884 19.6466C852.884 23.288 855.665 25.8254 859.501 25.8254C861.661 25.8254 863.688 25.0675 864.928 23.5022L861.946 22.1676C861.343 22.7113 860.422 22.9255 859.601 22.9255C858.261 22.9255 856.921 22.2499 856.737 20.8659H865.631C865.765 20.3713 865.833 19.8617 865.832 19.35C865.832 15.5768 863.035 13.2041 859.283 13.2041ZM861.996 18.4438H856.737C856.854 16.7961 858.06 16.0382 859.383 16.0382C860.874 16.0382 861.996 16.862 861.996 18.279V18.4438ZM836.536 8.04688C835.162 8.04688 834.124 8.95311 834.124 10.2218C834.124 11.4905 835.162 12.4297 836.536 12.4297C837.909 12.4297 838.948 11.507 838.948 10.2218C838.948 8.93663 837.926 8.04688 836.536 8.04688V8.04688ZM818.898 13.1877C818.112 13.1752 817.337 13.3629 816.647 13.7324C815.958 14.102 815.377 14.6409 814.961 15.2967L814.827 13.4183H811.075V25.6442H814.961V19.2347C815.045 17.7023 816.301 16.5325 817.675 16.5325C819.216 16.5325 819.92 17.6694 819.92 19.1029V25.6277H823.789V18.5097C823.789 15.412 821.871 13.1877 818.898 13.1877V13.1877ZM830.757 22.596C829.903 22.596 829.316 21.9369 829.316 20.9647V16.5325H832.834V13.4019H829.316L829.283 9.8099H825.397L825.43 21.7721C825.43 24.1942 827.072 25.8419 829.484 25.8419C830.757 25.8419 831.963 25.6607 832.918 25.2323V22.184C832.243 22.4937 831.501 22.6352 830.757 22.596V22.596ZM834.576 13.4183V25.6442H838.496V13.4183C837.915 13.7971 837.233 13.9991 836.536 13.9991C835.839 13.9991 835.157 13.7971 834.576 13.4183V13.4183Z" fill="white"/>
</g>
<defs>
<clipPath id="clip0_1_2302">
<rect width="81.0222" height="35.1141" fill="white" transform="translate(578.408 0.000244141)"/>
</clipPath>
<clipPath id="clip1_1_2302">
<rect width="60.0164" height="35.1141" fill="white"/>
</clipPath>
<clipPath id="clip2_1_2302">
<rect width="117.032" height="35.1141" fill="white" transform="translate(165.045 0.000244141)"/>
</clipPath>
<clipPath id="clip3_1_2302">
<rect width="86.2736" height="35.1141" fill="white" transform="translate(387.106)"/>
</clipPath>
<clipPath id="clip4_1_2302">
<rect width="105.779" height="35.1141" fill="white" transform="translate(764.459)"/>
</clipPath>
</defs>
</svg>
