<svg width="40" height="32" viewBox="0 0 40 32" fill="none" xmlns="http://www.w3.org/2000/svg">
<path d="M38.4186 0.465332V2.7444C35.1938 3.9227 32.6667 5.78316 30.8372 8.3258C29.0078 10.8374 28.093 13.4576 28.093 16.1863C28.093 16.7754 28.186 17.2095 28.3721 17.4886C28.4961 17.6746 28.6357 17.7677 28.7907 17.7677C28.9457 17.7677 29.1783 17.6591 29.4884 17.4421C30.4806 16.7289 31.7364 16.3723 33.2558 16.3723C35.0233 16.3723 36.5891 17.101 37.9535 18.5584C39.3178 19.9847 40 21.6901 40 23.6746C40 25.7522 39.2093 27.5816 37.6279 29.163C36.0775 30.7444 34.186 31.5351 31.9535 31.5351C29.3488 31.5351 27.1008 30.4653 25.2093 28.3258C23.3178 26.1863 22.3721 23.318 22.3721 19.7211C22.3721 15.5351 23.6589 11.7832 26.2326 8.46533C28.8062 5.1475 32.8682 2.48084 38.4186 0.465332ZM16.0465 0.465332V2.7444C12.8217 3.9227 10.2946 5.78316 8.46512 8.3258C6.63566 10.8374 5.72093 13.4576 5.72093 16.1863C5.72093 16.7754 5.81395 17.2095 6 17.4886C6.12403 17.6746 6.26357 17.7677 6.4186 17.7677C6.57364 17.7677 6.8062 17.6591 7.11628 17.4421C8.10853 16.7289 9.36434 16.3723 10.8837 16.3723C12.6512 16.3723 14.2171 17.101 15.5814 18.5584C16.9457 19.9847 17.6279 21.6901 17.6279 23.6746C17.6279 25.7522 16.8372 27.5816 15.2558 29.163C13.7054 30.7444 11.814 31.5351 9.5814 31.5351C6.97674 31.5351 4.72868 30.4653 2.83721 28.3258C0.945737 26.1863 0 23.318 0 19.7211C0 15.5351 1.28682 11.7832 3.86047 8.46533C6.43411 5.1475 10.4961 2.48084 16.0465 0.465332Z" fill="#1D1E25"/>
</svg>
